HIERARCHY
ROOT Hips
{
	OFFSET 0.00000 0.00000 0.00000
	CHANNELS 6 Xposition Yposition Zposition Zrotation Yrotation Xrotation 
	JOINT LHipJoint
	{
		OFFSET 0 0 0
		CHANNELS 3 Zrotation Yrotation Xrotation
		JOINT LeftUpLeg
		{
			OFFSET 1.30186 -1.90722 0.65024
			CHANNELS 3 Zrotation Yrotation Xrotation
			JOINT LeftLeg
			{
				OFFSET 2.56413 -7.04489 0.00000
				CHANNELS 3 Zrotation Yrotation Xrotation
				JOINT LeftFoot
				{
					OFFSET 2.79321 -7.67428 0.00000
					CHANNELS 3 Zrotation Yrotation Xrotation
					JOINT LeftToeBase
					{
						OFFSET 0.15723 -0.43198 2.08537
						CHANNELS 3 Zrotation Yrotation Xrotation
						End Site
						{
							OFFSET 0.00000 -0.00000 1.07411
						}
					}
				}
			}
		}
	}
	JOINT RHipJoint
	{
		OFFSET 0 0 0
		CHANNELS 3 Zrotation Yrotation Xrotation
		JOINT RightUpLeg
		{
			OFFSET -1.28627 -1.90723 0.65024
			CHANNELS 3 Zrotation Yrotation Xrotation
			JOINT RightLeg
			{
				OFFSET -2.56567 -7.04913 0.00000
				CHANNELS 3 Zrotation Yrotation Xrotation
				JOINT RightFoot
				{
					OFFSET -2.75597 -7.57198 0.00000
					CHANNELS 3 Zrotation Yrotation Xrotation
					JOINT RightToeBase
					{
						OFFSET -0.17500 -0.48081 2.22901
						CHANNELS 3 Zrotation Yrotation Xrotation
						End Site
						{
							OFFSET -0.00000 -0.00000 1.14762
						}
					}
				}
			}
		}
	}
	JOINT LowerBack
	{
		OFFSET 0 0 0
		CHANNELS 3 Zrotation Yrotation Xrotation
		JOINT Spine
		{
			OFFSET -0.04522 2.07467 -0.16566
			CHANNELS 3 Zrotation Yrotation Xrotation
			JOINT Spine1
			{
				OFFSET -0.01178 2.08825 -0.05393
				CHANNELS 3 Zrotation Yrotation Xrotation
				JOINT Neck
				{
					OFFSET 0 0 0
					CHANNELS 3 Zrotation Yrotation Xrotation
					JOINT Neck1
					{
						OFFSET -0.05182 1.80489 0.16014
						CHANNELS 3 Zrotation Yrotation Xrotation
						JOINT Head
						{
							OFFSET 0.14739 1.78840 -0.33342
							CHANNELS 3 Zrotation Yrotation Xrotation
							End Site
							{
								OFFSET 0.04364 1.83899 -0.13460
							}
						}
					}
				}
				JOINT LeftShoulder
				{
					OFFSET 0 0 0
					CHANNELS 3 Zrotation Yrotation Xrotation
					JOINT LeftArm
					{
						OFFSET 3.01264 1.29090 -0.06579
						CHANNELS 3 Zrotation Yrotation Xrotation
						JOINT LeftForeArm
						{
							OFFSET 5.55680 -0.00000 0.00000
							CHANNELS 3 Zrotation Yrotation Xrotation
							JOINT LeftHand
							{
								OFFSET 3.63979 -0.00000 -0.00000
								CHANNELS 3 Zrotation Yrotation Xrotation
								JOINT LeftFingerBase
								{
									OFFSET 0 0 0
									CHANNELS 3 Zrotation Yrotation Xrotation
									JOINT LeftHandIndex1
									{
										OFFSET 0.56942 -0.00000 -0.00000
										CHANNELS 3 Zrotation Yrotation Xrotation
										End Site
										{
											OFFSET 0.45908 -0.00000 -0.00000
										}
									}
								}
								JOINT LThumb
								{
									OFFSET 0 0 0
									CHANNELS 3 Zrotation Yrotation Xrotation
									End Site
									{
										OFFSET 0.46609 -0.00000 0.46609
									}
								}
							}
						}
					}
				}
				JOINT RightShoulder
				{
					OFFSET 0 0 0
					CHANNELS 3 Zrotation Yrotation Xrotation
					JOINT RightArm
					{
						OFFSET -3.15796 1.37283 -0.36748
						CHANNELS 3 Zrotation Yrotation Xrotation
						JOINT RightForeArm
						{
							OFFSET -5.34339 -0.00000 0.00000
							CHANNELS 3 Zrotation Yrotation Xrotation
							JOINT RightHand
							{
								OFFSET -3.65101 -0.00000 -0.00000
								CHANNELS 3 Zrotation Yrotation Xrotation
								JOINT RightFingerBase
								{
									OFFSET 0 0 0
									CHANNELS 3 Zrotation Yrotation Xrotation
									JOINT RightHandIndex1
									{
										OFFSET -0.69425 -0.00000 -0.00000
										CHANNELS 3 Zrotation Yrotation Xrotation
										End Site
										{
											OFFSET -0.55972 -0.00000 -0.00000
										}
									}
								}
								JOINT RThumb
								{
									OFFSET 0 0 0
									CHANNELS 3 Zrotation Yrotation Xrotation
									End Site
									{
										OFFSET -0.56827 -0.00000 0.56827
									}
								}
							}
						}
					}
				}
			}
		}
	}
}
MOTION
Frames: 9
Frame Time: .0083333
8.5197 18.8876 9.8152 178.2280 1.3287 -175.2440 0.0000 0.0000 0.0000 -18.8036 -8.9383 2.8493 0.1379 2.3932 6.5938 0.2000 7.7723 -14.5766 0.2542 -3.2437 -8.9580 0.0000 0.0000 0.0000 13.4672 12.8989 4.5884 -0.1772 -2.7119 7.4775 0.8213 -16.4919 -11.2443 -0.0386 -1.2687 3.4885 -3.9214 0.5377 -2.1002 -1.1676 0.8666 -0.0050 1.0260 0.4313 1.1339 -9.0229 -8.3632 -10.3415 18.3679 -13.2442 8.9572 6.0312 -6.0508 6.3120 -0.0000 0.0000 0.0000 -82.3565 -18.9006 49.7009 141.2866 -47.2889 -102.5121 -0.0000 0.0000 -25.9322 35.3669 18.4812 12.6804 -7.1250 0.0000 -0.0000 7.4895 52.1144 1.3179 -0.0000 0.0000 0.0000 87.3975 13.6128 45.9801 -134.9549 50.7905 -97.7263 0.0000 -0.0000 -26.7613 -15.5427 69.2488 -14.5788 7.1250 -0.0000 -0.0000 18.1248 37.7267 26.0317
8.5199 18.8929 9.8148 178.3540 1.3649 -175.1910 0.0000 0.0000 0.0000 -18.6462 -8.8709 2.7555 0.1423 2.4314 6.6996 0.2181 7.5898 -14.6467 0.2377 -3.1380 -8.6631 0.0000 0.0000 0.0000 13.6019 12.9350 4.5788 -0.1731 -2.6805 7.3905 0.8203 -16.4764 -11.2141 -0.0459 -1.3823 3.8013 -3.7936 0.5485 -2.1190 -1.1196 0.8748 -0.0291 1.0040 0.4353 1.1202 -9.0342 -8.3451 -10.4237 18.3589 -13.2317 9.0708 6.0290 -6.0369 6.3599 0.0000 -0.0000 0.0000 -82.7503 -18.6487 50.5787 141.3116 -47.2734 -102.5304 -0.0000 0.0000 -25.6871 35.6191 17.6029 12.2249 -7.1250 0.0000 -0.0000 7.7905 51.1371 1.1840 0.0000 -0.0000 0.0000 87.7606 13.4906 46.5244 -135.1983 50.6710 -97.9147 0.0000 -0.0000 -26.8190 -11.6461 68.5725 -10.8610 7.1250 -0.0000 -0.0000 18.8514 36.5580 27.0854
8.5211 18.8905 9.8154 178.4460 1.4251 -175.1600 0.0000 0.0000 0.0000 -18.5282 -8.8012 2.6094 0.1468 2.4692 6.8041 0.2202 7.5772 -14.6644 0.2454 -3.1876 -8.8016 0.0000 0.0000 0.0000 13.7160 12.9893 4.5898 -0.1692 -2.6499 7.3054 0.8242 -16.4970 -11.1690 -0.0292 -1.1030 3.0323 -3.7368 0.5695 -2.2613 -1.0482 0.9069 0.0635 1.0489 0.4461 1.2932 -9.0276 -8.2895 -10.7042 18.2418 -13.1149 9.1693 5.9952 -5.9610 6.4134 0.0000 0.0000 0.0000 -83.1538 -18.5464 51.5915 141.2159 -47.3328 -102.4601 -0.0000 0.0000 -25.3123 35.5573 17.0396 11.8302 -7.1250 0.0000 -0.0000 7.7425 50.4634 1.0480 0.0000 0.0000 0.0000 88.0535 13.5778 47.3133 -135.2120 50.6642 -97.9253 0.0000 -0.0000 -26.8504 -8.0255 67.6889 -7.4317 7.1250 -0.0000 -0.0000 19.5098 35.2838 28.0267
8.5227 18.8861 9.8132 178.3190 1.5490 -175.1740 0.0000 0.0000 0.0000 -18.6736 -8.6676 2.5123 0.1505 2.4997 6.8890 0.2273 7.5408 -14.7288 0.2429 -3.1718 -8.7575 0.0000 0.0000 0.0000 13.5699 13.0869 4.6251 -0.1681 -2.6415 7.2821 0.8236 -16.4878 -11.1511 -0.0291 -1.1003 3.0249 -3.9113 0.6366 -2.3441 -1.0660 1.0085 0.1063 1.1330 0.4945 1.3766 -8.8778 -8.2472 -10.7628 18.0666 -13.0325 9.1719 5.9219 -5.9176 6.3889 0.0000 -0.0000 0.0000 -83.6663 -18.3982 52.8739 141.0719 -47.4218 -102.3542 -0.0000 0.0000 -25.1110 35.5307 17.1012 11.8592 -7.1250 0.0000 -0.0000 7.7133 50.5306 1.0568 0.0000 -0.0000 0.0000 88.3770 13.6002 48.1377 -135.0612 50.7385 -97.8086 0.0000 -0.0000 -26.9096 -4.5297 67.0010 -4.1709 7.1250 -0.0000 -0.0000 20.2733 34.2447 29.1373
8.5231 18.8847 9.8095 178.2980 1.6335 -175.1840 0.0000 0.0000 0.0000 -18.7132 -8.5146 2.5527 0.1449 2.4529 6.7592 0.2039 7.6705 -14.5236 0.3130 -3.5968 -9.9450 0.0000 0.0000 0.0000 13.5455 13.1954 4.5425 -0.1792 -2.7266 7.5185 0.8114 -16.4401 -11.3599 -0.0302 -1.1215 3.0831 -3.9445 0.7119 -2.4316 -1.0766 1.1155 0.1229 1.1456 0.5467 1.4372 -8.6945 -8.2358 -10.5922 17.9151 -12.9999 9.0430 5.8525 -5.9152 6.2902 -0.0000 -0.0000 0.0000 -84.2920 -18.1683 54.4790 140.9823 -47.4771 -102.2882 -0.0000 0.0000 -24.9046 35.6847 16.9846 11.8481 -7.1250 0.0000 -0.0000 7.8759 50.4232 1.0584 -0.0000 -0.0000 0.0000 88.7528 13.5833 48.8548 -136.0336 50.2520 -98.5589 0.0000 -0.0000 -28.0250 3.7065 61.5451 3.2598 7.1250 -0.0000 -0.0000 21.6183 28.3961 30.7075
8.5231 18.8847 9.8080 178.3920 1.6571 -175.2190 0.0000 0.0000 0.0000 -18.6177 -8.3709 2.7148 0.1323 2.3443 6.4583 0.1691 7.8544 -14.2015 0.4135 -4.1278 -11.4366 0.0000 0.0000 0.0000 13.6822 13.2826 4.3800 -0.2012 -2.8880 7.9672 0.7946 -16.3884 -11.6826 -0.0311 -1.1376 3.1274 -3.8656 0.7435 -2.4227 -1.0391 1.1524 0.1288 1.1413 0.5646 1.4372 -8.5357 -8.2064 -10.4506 17.7650 -12.9509 8.9869 5.7891 -5.9016 6.2188 -0.0000 0.0000 0.0000 -84.8362 -17.8979 56.2528 140.7749 -47.6040 -102.1352 -0.0000 0.0000 -24.5983 36.0248 16.8264 11.8875 -7.1250 0.0000 -0.0000 8.2316 50.3021 1.0821 -0.0000 0.0000 0.0000 89.2452 13.5593 50.1864 -135.7416 50.3999 -98.3342 0.0000 -0.0000 -27.6744 5.5781 60.3696 4.8524 7.1250 -0.0000 -0.0000 22.0790 27.1638 31.2763
8.5299 18.8817 9.8078 178.3050 2.0298 -175.1550 0.0000 0.0000 0.0000 -18.7026 -7.9393 2.6860 0.1215 2.2471 6.1889 0.1670 7.7950 -14.1014 0.3963 -4.0418 -11.1943 0.0000 0.0000 0.0000 13.5729 13.7226 4.1808 -0.2181 -3.0066 8.2972 0.8055 -16.4478 -11.5762 -0.0194 -0.9004 2.4748 -4.0690 0.9131 -2.4627 -1.0974 1.3902 0.1084 1.2036 0.6839 1.4242 -8.1898 -8.2310 -10.4111 17.5928 -13.0172 8.9780 5.6691 -5.9358 6.1825 0.0000 -0.0000 0.0000 -85.3110 -17.8055 58.3111 140.2927 -47.8955 -101.7782 -0.0000 0.0000 -24.2268 36.1300 16.6488 11.8133 -7.1250 0.0000 -0.0000 8.3427 50.1124 1.0578 0.0000 -0.0000 0.0000 89.8022 13.5763 51.8748 -134.1347 51.1854 -97.0890 0.0000 -0.0000 -25.7989 1.4176 64.1576 1.2759 7.1250 -0.0000 -0.0000 21.3511 31.0264 30.5626
8.5486 18.8813 9.8056 178.1720 3.1669 -174.8030 0.0000 0.0000 0.0000 -18.8480 -6.8755 2.1591 0.1137 2.1743 5.9875 0.1761 7.6778 -14.1114 0.3211 -3.6425 -10.0731 0.0000 0.0000 0.0000 13.2675 14.9933 3.7939 -0.2310 -3.0938 8.5399 0.8199 -16.5101 -11.3651 -0.0089 -0.6103 1.6772 -4.4966 1.3322 -2.9028 -1.1923 1.9928 0.0201 1.3757 0.9837 1.5393 -7.8138 -8.2601 -10.2527 17.4746 -13.0644 8.7122 5.5694 -5.9739 6.0456 -0.0000 -0.0000 0.0000 -85.6784 -17.7593 60.5967 139.7093 -48.2412 -101.3442 -0.0000 0.0000 -24.1511 36.6461 16.0017 11.5891 -7.1250 0.0000 -0.0000 8.8751 49.4415 0.9789 -0.0000 -0.0000 0.0000 90.1849 13.5601 53.3834 -133.6667 51.4052 -96.7237 0.0000 -0.0000 -25.6520 3.5996 63.3261 3.2174 7.1250 -0.0000 -0.0000 21.8824 30.0772 31.3020
8.5252 18.8770 9.7954 177.8530 2.1585 -175.2490 0.0000 0.0000 0.0000 -19.2731 -7.6341 2.9840 0.1058 2.0973 5.7747 0.1556 7.7560 -13.8791 0.2857 -3.4376 -9.4994 0.0000 0.0000 0.0000 13.0349 13.8518 4.0598 -0.2430 -3.1720 8.7579 0.7891 -16.3704 -11.7796 -0.0113 -0.6864 1.8863 -4.4594 0.9500 -2.5039 -1.2434 1.4665 0.1792 1.2760 0.7205 1.5111 -7.8986 -8.1608 -10.0747 17.4251 -12.8687 8.5470 5.5990 -5.8946 5.9387 0.0000 0.0000 0.0000 -86.1456 -17.5589 62.5849 139.1009 -48.5937 -100.8891 -0.0000 0.0000 -24.1411 37.2713 15.5846 11.5550 -7.1250 0.0000 -0.0000 9.5084 49.0593 0.9598 0.0000 0.0000 0.0000 90.3096 13.6451 55.3948 -133.0070 51.7083 -96.2071 0.0000 -0.0000 -25.7020 5.9562 62.2273 5.2742 7.1250 -0.0000 -0.0000 22.4676 28.8895 32.0963
